# xmcd
#
# Track frame offsets: 
#        150
#        18332
#        41810
#        61962
#        93870
#
# Disc length: 1746 seconds
#
# Revision: 0
# Processed by: cddbd v1.5.1PL0 Copyright (c) Steve Scherf et al.
# Submitted via: ExactAudioCopy v0.95a4
#
DISCID=3606d005
DTITLE=Mellow Mark - Butterfly
DYEAR=2004
DGENRE=Acoustic
TTITLE0=Butterfly
TTITLE1=Nacho High
TTITLE2=On and On Pt.lll (95- RMX)
TTITLE3=Butterfly (Bulldog-RMX)
TTITLE4=Butterfly (Video)
EXTD=
EXTT0=
EXTT1=
EXTT2=
EXTT3=
EXTT4=
PLAYORDER=
